<?xml version="1.0" encoding="UTF-8" standalone="no"?>
<svg
   xmlns:dc="http://purl.org/dc/elements/1.1/"
   xmlns:cc="http://creativecommons.org/ns#"
   xmlns:rdf="http://www.w3.org/1999/02/22-rdf-syntax-ns#"
   xmlns:svg="http://www.w3.org/2000/svg"
   xmlns="http://www.w3.org/2000/svg"
   version="1.1"
   id="svg2"
   viewBox="0 0 64.000001 64.000001"
   height="64"
   width="64">
  <defs
     id="defs4">
    <filter
       id="filter9534"
       style="color-interpolation-filters:sRGB;">
      <feFlood
         id="feFlood9536"
         result="flood"
         flood-color="rgb(0,0,0)"
         flood-opacity="0.784314" />
      <feComposite
         id="feComposite9538"
         result="composite1"
         operator="out"
         in2="SourceGraphic"
         in="flood" />
      <feGaussianBlur
         id="feGaussianBlur9540"
         result="blur"
         stdDeviation="0.2"
         in="composite1" />
      <feOffset
         id="feOffset9542"
         result="offset"
         dy="1.38778e-16"
         dx="1.38778e-16" />
      <feComposite
         id="feComposite9544"
         result="composite2"
         operator="atop"
         in2="SourceGraphic"
         in="offset" />
    </filter>
    <filter
       id="filter13779"
       style="color-interpolation-filters:sRGB;">
      <feTurbulence
         id="feTurbulence13781"
         result="turbulence"
         seed="360"
         numOctaves="5"
         baseFrequency="0.52633 0.57896"
         type="fractalNoise" />
      <feComposite
         id="feComposite13783"
         result="composite1"
         operator="in"
         in2="turbulence"
         in="SourceGraphic" />
      <feColorMatrix
         id="feColorMatrix13785"
         result="color"
         values="1 0 0 0 0 0 1 0 0 0 0 0 1 0 0 0 0 0 2.16 -1 " />
      <feFlood
         id="feFlood13787"
         result="flood"
         flood-color="rgb(108,42,8)"
         flood-opacity="1" />
      <feMerge
         id="feMerge13789"
         result="merge">
        <feMergeNode
           id="feMergeNode13791"
           in="flood" />
        <feMergeNode
           id="feMergeNode13793"
           in="color" />
      </feMerge>
      <feComposite
         id="feComposite13795"
         result="composite2"
         operator="in"
         in2="SourceGraphic" />
    </filter>
  </defs>
  <metadata
     id="metadata7">
    <rdf:RDF>
      <cc:Work
         rdf:about="">
        <dc:format>image/svg+xml</dc:format>
        <dc:type
           rdf:resource="http://purl.org/dc/dcmitype/StillImage" />
        <dc:title></dc:title>
      </cc:Work>
    </rdf:RDF>
  </metadata>
  <g
     transform="translate(0,-988.36216)"
     id="layer1">
    <g
       transform="matrix(1.1247928,0,0,1.1247928,-4.1384245,-127.20403)"
       id="g13877">
      <rect
         style="opacity:1;fill:#461b06;fill-opacity:1;fill-rule:nonzero;stroke:none;stroke-width:0.30000001;stroke-linecap:round;stroke-linejoin:round;stroke-miterlimit:4;stroke-dasharray:none;stroke-dashoffset:0;stroke-opacity:1"
         id="rect13803"
         width="53.434921"
         height="53.434921"
         x="7.1501713"
         y="995.29071"
         rx="3.3396826"
         ry="3.3396826" />
      <rect
         ry="3.3009937"
         rx="3.3009937"
         y="995.45612"
         x="6.9272079"
         height="52.815899"
         width="52.815899"
         id="rect13801"
         style="opacity:1;fill:#fbebd1;fill-opacity:1;fill-rule:nonzero;stroke:#000000;stroke-width:0.33009934;stroke-linecap:round;stroke-linejoin:round;stroke-miterlimit:4;stroke-dasharray:none;stroke-dashoffset:0;stroke-opacity:1" />
      <rect
         style="opacity:1;fill:#fbebd1;fill-opacity:1;fill-rule:nonzero;stroke:#000000;stroke-width:0.33009937;stroke-linecap:round;stroke-linejoin:round;stroke-miterlimit:4;stroke-dasharray:none;stroke-dashoffset:0;stroke-opacity:1"
         id="rect13799"
         width="52.815899"
         height="52.815899"
         x="6.1730494"
         y="994.61322"
         rx="3.3009937"
         ry="3.3009937" />
      <rect
         ry="3.3071468"
         rx="3.3258834"
         y="993.271"
         x="4.8198252"
         height="52.914349"
         width="53.214134"
         id="rect13797"
         style="opacity:1;fill:#fbebd1;fill-opacity:1;fill-rule:nonzero;stroke:#000000;stroke-width:0.3316502;stroke-linecap:round;stroke-linejoin:round;stroke-miterlimit:4;stroke-dasharray:none;stroke-dashoffset:0;stroke-opacity:1" />
      <rect
         style="opacity:1;fill:#792f09;fill-opacity:1;fill-rule:nonzero;stroke:none;stroke-width:15;stroke-linecap:round;stroke-linejoin:round;stroke-miterlimit:4;stroke-dasharray:none;stroke-dashoffset:0;stroke-opacity:1;filter:url(#filter13779)"
         id="rect8120"
         width="48"
         height="48"
         x="8"
         y="996.36218"
         rx="3"
         ry="3"
         transform="matrix(1.1086083,0,0,1.1086083,-4.9925463,-112.73675)" />
      <g
         id="g13863"
         transform="translate(-1.5998575,-1.7004075)">
        <g
           id="g10997"
           style="font-style:normal;font-weight:normal;font-size:40px;line-height:125%;font-family:Sans;letter-spacing:0px;word-spacing:0px;fill:#d97c7c;fill-opacity:1;fill-rule:nonzero;stroke:none;stroke-width:1px;stroke-linecap:butt;stroke-linejoin:miter;stroke-opacity:1"
           transform="matrix(1.1086083,0,0,1.1086083,-3.4924688,-110.94766)">
          <path
             id="path10999"
             style="font-size:20px;fill:#d97c7c;fill-opacity:1;fill-rule:nonzero"
             d="m 13.1735,1027.2429 0,-1.4941 3.505859,0 0,-10.586 -3.105468,2.2168 0,-1.6601 3.251953,-2.2363 1.621094,0 0,12.2656 3.349609,0 0,1.4941 -8.623047,0 z" />
          <path
             id="path11001"
             style="font-size:20px;fill:#d97c7c;fill-opacity:1;fill-rule:nonzero"
             d="m 33.124672,1020.3582 q 0,3.4472 -1.220703,5.2636 -1.210938,1.8164 -3.583985,1.8164 -2.373046,0 -3.564453,-1.8066 -1.191406,-1.8066 -1.191406,-5.2734 0,-3.545 1.152344,-5.3125 1.162109,-1.7676 3.662109,-1.7676 2.431641,0 3.583985,1.7871 1.162109,1.7871 1.162109,5.293 z m -1.787109,0 q 0,-2.9786 -0.69336,-4.3165 -0.683594,-1.3378 -2.265625,-1.3378 -1.621094,0 -2.333984,1.3183 -0.703125,1.3184 -0.703125,4.336 0,2.9296 0.71289,4.2871 0.722657,1.3574 2.285157,1.3574 1.552734,0 2.27539,-1.3867 0.722657,-1.3868 0.722657,-4.2578 z" />
          <path
             id="path11003"
             style="font-size:20px;fill:#d97c7c;fill-opacity:1;fill-rule:nonzero"
             d="m 50.986,1023.0046 q 0,2.0996 -0.791016,3.2325 -0.791015,1.123 -2.333984,1.123 -1.523437,0 -2.304687,-1.0937 -0.771485,-1.1036 -0.771485,-3.2618 0,-2.2265 0.742188,-3.3105 0.751953,-1.0938 2.373047,-1.0938 1.601562,0 2.34375,1.1231 0.742187,1.1133 0.742187,3.2812 z m -11.923828,4.2383 -1.513672,0 9.003906,-13.7597 1.533203,0 -9.023437,13.7597 z m -1.298828,-13.8769 q 1.552734,0 2.304687,1.0937 0.751953,1.0938 0.751953,3.2617 0,2.1192 -0.78125,3.2618 -0.771484,1.1425 -2.314453,1.1425 -1.542968,0 -2.324218,-1.1328 -0.771485,-1.1328 -0.771485,-3.2715 0,-2.1777 0.751953,-3.2617 0.751953,-1.0937 2.382813,-1.0937 z m 11.777344,9.6386 q 0,-1.748 -0.38086,-2.5293 -0.371094,-0.791 -1.259765,-0.791 -0.888672,0 -1.289063,0.7715 -0.390625,0.7715 -0.390625,2.5488 0,1.67 0.380859,2.4805 0.390625,0.8008 1.279297,0.8008 0.859375,0 1.259766,-0.8106 0.400391,-0.8203 0.400391,-2.4707 z m -10.15625,-5.2832 q 0,-1.7187 -0.371094,-2.5097 -0.371094,-0.791 -1.25,-0.791 -0.917969,0 -1.308594,0.7812 -0.390625,0.7715 -0.390625,2.5195 0,1.6895 0.390625,2.5 0.390625,0.8008 1.289063,0.8008 0.849609,0 1.240234,-0.8203 0.400391,-0.8203 0.400391,-2.4805 z" />
        </g>
        <g
           id="g11005"
           style="font-style:normal;font-weight:normal;font-size:40px;line-height:125%;font-family:Sans;letter-spacing:0px;word-spacing:0px;fill:#170902;fill-opacity:1;stroke:none;stroke-width:1px;stroke-linecap:butt;stroke-linejoin:miter;stroke-opacity:1"
           transform="matrix(1.1086083,0,0,1.1086083,-3.4924688,-110.72593)">
          <path
             id="path11007"
             style="font-size:20px;fill:#170902;fill-opacity:1"
             d="m 13.1735,1027.2429 0,-1.4941 3.505859,0 0,-10.586 -3.105468,2.2168 0,-1.6601 3.251953,-2.2363 1.621094,0 0,12.2656 3.349609,0 0,1.4941 -8.623047,0 z" />
          <path
             id="path11009"
             style="font-size:20px;fill:#170902;fill-opacity:1"
             d="m 33.124672,1020.3582 q 0,3.4472 -1.220703,5.2636 -1.210938,1.8164 -3.583985,1.8164 -2.373046,0 -3.564453,-1.8066 -1.191406,-1.8066 -1.191406,-5.2734 0,-3.545 1.152344,-5.3125 1.162109,-1.7676 3.662109,-1.7676 2.431641,0 3.583985,1.7871 1.162109,1.7871 1.162109,5.293 z m -1.787109,0 q 0,-2.9786 -0.69336,-4.3165 -0.683594,-1.3378 -2.265625,-1.3378 -1.621094,0 -2.333984,1.3183 -0.703125,1.3184 -0.703125,4.336 0,2.9296 0.71289,4.2871 0.722657,1.3574 2.285157,1.3574 1.552734,0 2.27539,-1.3867 0.722657,-1.3868 0.722657,-4.2578 z" />
          <path
             id="path11011"
             style="font-size:20px;fill:#170902;fill-opacity:1"
             d="m 50.986,1023.0046 q 0,2.0996 -0.791016,3.2325 -0.791015,1.123 -2.333984,1.123 -1.523437,0 -2.304687,-1.0937 -0.771485,-1.1036 -0.771485,-3.2618 0,-2.2265 0.742188,-3.3105 0.751953,-1.0938 2.373047,-1.0938 1.601562,0 2.34375,1.1231 0.742187,1.1133 0.742187,3.2812 z m -11.923828,4.2383 -1.513672,0 9.003906,-13.7597 1.533203,0 -9.023437,13.7597 z m -1.298828,-13.8769 q 1.552734,0 2.304687,1.0937 0.751953,1.0938 0.751953,3.2617 0,2.1192 -0.78125,3.2618 -0.771484,1.1425 -2.314453,1.1425 -1.542968,0 -2.324218,-1.1328 -0.771485,-1.1328 -0.771485,-3.2715 0,-2.1777 0.751953,-3.2617 0.751953,-1.0937 2.382813,-1.0937 z m 11.777344,9.6386 q 0,-1.748 -0.38086,-2.5293 -0.371094,-0.791 -1.259765,-0.791 -0.888672,0 -1.289063,0.7715 -0.390625,0.7715 -0.390625,2.5488 0,1.67 0.380859,2.4805 0.390625,0.8008 1.279297,0.8008 0.859375,0 1.259766,-0.8106 0.400391,-0.8203 0.400391,-2.4707 z m -10.15625,-5.2832 q 0,-1.7187 -0.371094,-2.5097 -0.371094,-0.791 -1.25,-0.791 -0.917969,0 -1.308594,0.7812 -0.390625,0.7715 -0.390625,2.5195 0,1.6895 0.390625,2.5 0.390625,0.8008 1.289063,0.8008 0.849609,0 1.240234,-0.8203 0.400391,-0.8203 0.400391,-2.4805 z" />
        </g>
        <g
           transform="matrix(1.1086083,0,0,1.1086083,-3.4924688,-110.83675)"
           id="text8122"
           style="font-style:normal;font-weight:normal;font-size:40px;line-height:125%;font-family:Sans;letter-spacing:0px;word-spacing:0px;fill:#411806;fill-opacity:1;stroke:none;stroke-width:1px;stroke-linecap:butt;stroke-linejoin:miter;stroke-opacity:1;filter:url(#filter9534)">
          <path
             id="path9324"
             style="font-size:20px;fill:#411806;fill-opacity:1"
             d="m 13.1735,1027.2429 0,-1.4941 3.505859,0 0,-10.586 -3.105468,2.2168 0,-1.6601 3.251953,-2.2363 1.621094,0 0,12.2656 3.349609,0 0,1.4941 -8.623047,0 z" />
          <path
             id="path9326"
             style="font-size:20px;fill:#411806;fill-opacity:1"
             d="m 33.124672,1020.3582 q 0,3.4472 -1.220703,5.2636 -1.210938,1.8164 -3.583985,1.8164 -2.373046,0 -3.564453,-1.8066 -1.191406,-1.8066 -1.191406,-5.2734 0,-3.545 1.152344,-5.3125 1.162109,-1.7676 3.662109,-1.7676 2.431641,0 3.583985,1.7871 1.162109,1.7871 1.162109,5.293 z m -1.787109,0 q 0,-2.9786 -0.69336,-4.3165 -0.683594,-1.3378 -2.265625,-1.3378 -1.621094,0 -2.333984,1.3183 -0.703125,1.3184 -0.703125,4.336 0,2.9296 0.71289,4.2871 0.722657,1.3574 2.285157,1.3574 1.552734,0 2.27539,-1.3867 0.722657,-1.3868 0.722657,-4.2578 z" />
          <path
             id="path9328"
             style="font-size:20px;fill:#411806;fill-opacity:1"
             d="m 50.986,1023.0046 q 0,2.0996 -0.791016,3.2325 -0.791015,1.123 -2.333984,1.123 -1.523437,0 -2.304687,-1.0937 -0.771485,-1.1036 -0.771485,-3.2618 0,-2.2265 0.742188,-3.3105 0.751953,-1.0938 2.373047,-1.0938 1.601562,0 2.34375,1.1231 0.742187,1.1133 0.742187,3.2812 z m -11.923828,4.2383 -1.513672,0 9.003906,-13.7597 1.533203,0 -9.023437,13.7597 z m -1.298828,-13.8769 q 1.552734,0 2.304687,1.0937 0.751953,1.0938 0.751953,3.2617 0,2.1192 -0.78125,3.2618 -0.771484,1.1425 -2.314453,1.1425 -1.542968,0 -2.324218,-1.1328 -0.771485,-1.1328 -0.771485,-3.2715 0,-2.1777 0.751953,-3.2617 0.751953,-1.0937 2.382813,-1.0937 z m 11.777344,9.6386 q 0,-1.748 -0.38086,-2.5293 -0.371094,-0.791 -1.259765,-0.791 -0.888672,0 -1.289063,0.7715 -0.390625,0.7715 -0.390625,2.5488 0,1.67 0.380859,2.4805 0.390625,0.8008 1.279297,0.8008 0.859375,0 1.259766,-0.8106 0.400391,-0.8203 0.400391,-2.4707 z m -10.15625,-5.2832 q 0,-1.7187 -0.371094,-2.5097 -0.371094,-0.791 -1.25,-0.791 -0.917969,0 -1.308594,0.7812 -0.390625,0.7715 -0.390625,2.5195 0,1.6895 0.390625,2.5 0.390625,0.8008 1.289063,0.8008 0.849609,0 1.240234,-0.8203 0.400391,-0.8203 0.400391,-2.4805 z" />
        </g>
      </g>
    </g>
  </g>
</svg>
